<svg xmlns="http://www.w3.org/2000/svg" version="1.1" xmlns:xlink="http://www.w3.org/1999/xlink" xmlns:svgjs="http://svgjs.dev/svgjs" viewBox="0 0 800 800"><defs><linearGradient x1="50%" y1="0%" x2="50%" y2="100%" id="cccoil-grad"><stop stop-color="hsl(206, 75%, 49%)" stop-opacity="1" offset="0%"></stop><stop stop-color="hsl(331, 90%, 56%)" stop-opacity="1" offset="100%"></stop></linearGradient></defs><g stroke="url(#cccoil-grad)" fill="none" stroke-linecap="round"><circle r="388.5" cx="400" cy="400" stroke-width="4" stroke-dasharray="2441 2441" transform="rotate(360, 400, 400)" stroke-dashoffset="43" opacity="0.05"></circle><circle r="370" cx="400" cy="400" stroke-width="4" stroke-dasharray="2209 2325" transform="rotate(342, 400, 400)" stroke-dashoffset="43" opacity="0.10"></circle><circle r="351.5" cx="400" cy="400" stroke-width="4" stroke-dasharray="1988 2209" transform="rotate(324, 400, 400)" stroke-dashoffset="43" opacity="0.15"></circle><circle r="333" cx="400" cy="400" stroke-width="4" stroke-dasharray="1778 2092" transform="rotate(306, 400, 400)" stroke-dashoffset="43" opacity="0.19"></circle><circle r="314.5" cx="400" cy="400" stroke-width="4" stroke-dasharray="1581 1976" transform="rotate(288, 400, 400)" stroke-dashoffset="43" opacity="0.24"></circle><circle r="296" cx="400" cy="400" stroke-width="4" stroke-dasharray="1395 1860" transform="rotate(270, 400, 400)" stroke-dashoffset="43" opacity="0.29"></circle><circle r="277.5" cx="400" cy="400" stroke-width="4" stroke-dasharray="1221 1744" transform="rotate(252, 400, 400)" stroke-dashoffset="43" opacity="0.33"></circle><circle r="259" cx="400" cy="400" stroke-width="4" stroke-dasharray="1058 1627" transform="rotate(234, 400, 400)" stroke-dashoffset="43" opacity="0.38"></circle><circle r="240.5" cx="400" cy="400" stroke-width="4" stroke-dasharray="907 1511" transform="rotate(216, 400, 400)" stroke-dashoffset="43" opacity="0.43"></circle><circle r="222" cx="400" cy="400" stroke-width="4" stroke-dasharray="767 1395" transform="rotate(198, 400, 400)" stroke-dashoffset="43" opacity="0.48"></circle><circle r="203.5" cx="400" cy="400" stroke-width="4" stroke-dasharray="639 1279" transform="rotate(180, 400, 400)" stroke-dashoffset="43" opacity="0.53"></circle><circle r="185" cx="400" cy="400" stroke-width="4" stroke-dasharray="523 1162" transform="rotate(162, 400, 400)" stroke-dashoffset="43" opacity="0.57"></circle><circle r="166.5" cx="400" cy="400" stroke-width="4" stroke-dasharray="418 1046" transform="rotate(144, 400, 400)" stroke-dashoffset="43" opacity="0.62"></circle><circle r="148" cx="400" cy="400" stroke-width="4" stroke-dasharray="325 930" transform="rotate(126, 400, 400)" stroke-dashoffset="43" opacity="0.67"></circle><circle r="129.5" cx="400" cy="400" stroke-width="4" stroke-dasharray="244 814" transform="rotate(108, 400, 400)" stroke-dashoffset="43" opacity="0.71"></circle><circle r="111" cx="400" cy="400" stroke-width="4" stroke-dasharray="174 697" transform="rotate(90, 400, 400)" stroke-dashoffset="43" opacity="0.76"></circle><circle r="92.5" cx="400" cy="400" stroke-width="4" stroke-dasharray="116 581" transform="rotate(72, 400, 400)" stroke-dashoffset="43" opacity="0.81"></circle><circle r="74" cx="400" cy="400" stroke-width="4" stroke-dasharray="70 465" transform="rotate(54, 400, 400)" stroke-dashoffset="43" opacity="0.86"></circle><circle r="55.5" cx="400" cy="400" stroke-width="4" stroke-dasharray="35 349" transform="rotate(36, 400, 400)" stroke-dashoffset="43" opacity="0.91"></circle><circle r="37" cx="400" cy="400" stroke-width="4" stroke-dasharray="12 232" transform="rotate(18, 400, 400)" stroke-dashoffset="43" opacity="0.95"></circle><circle r="18.5" cx="400" cy="400" stroke-width="4" stroke-dasharray="0 116" stroke-dashoffset="43" opacity="1.00"></circle></g></svg>